%TF.GenerationSoftware,KiCad,Pcbnew,10.0.5*%
%TF.CreationDate,2026-08-21T23:37:39-07:00*%
%TF.ProjectId,fih,6669682e-6b69-4636-9164-5f7063625858,v1.0.0*%
%TF.SameCoordinates,Original*%
%TF.FileFunction,Profile,NP*%
%FSLAX46Y46*%
G04 Gerber Fmt 4.6, Leading zero omitted, Abs format (unit mm)*
G04 Created by KiCad (PCBNEW 10.0.5) date 2026-08-21 23:37:39*
%MOMM*%
%LPD*%
G01*
G04 APERTURE LIST*
%TA.AperFunction,Profile*%
%ADD10C,0.150000*%
%TD*%
G04 APERTURE END LIST*
D10*
X86882350Y-127435044D02*
G75*
G02*
X87693518Y-126276639I984750J173644D01*
G01*
X86882350Y-127435044D02*
X92439092Y-158948892D01*
X87693509Y-126276588D02*
X105748050Y-123093085D01*
X93597548Y-159760051D02*
G75*
G02*
X92439138Y-158948884I-173648J984751D01*
G01*
X93597548Y-159760051D02*
X109354472Y-156981680D01*
X104637441Y-94373531D02*
G75*
G02*
X105565245Y-93306150I997659J69731D01*
G01*
X104637441Y-94373531D02*
X106571966Y-122038521D01*
X105565249Y-93306210D02*
X124558244Y-91978091D01*
X106571966Y-122038521D02*
G75*
G02*
X105748040Y-123093029I-997466J-69779D01*
G01*
X108318121Y-145345473D02*
G75*
G02*
X109233172Y-144174258I984779J173673D01*
G01*
X109233172Y-144174261D02*
X125750479Y-143019258D01*
X110165631Y-155823224D02*
X108318121Y-145345473D01*
X110165631Y-155823224D02*
G75*
G02*
X109354467Y-156981650I-984731J-173676D01*
G01*
X125488488Y-84516823D02*
X125488488Y-90980527D01*
X125488488Y-84516823D02*
G75*
G02*
X126488488Y-83516888I999912J23D01*
G01*
X125488488Y-90980527D02*
G75*
G02*
X124558248Y-91978146I-1000088J27D01*
G01*
X125750479Y-143019259D02*
G75*
G02*
X125820236Y-143016822I69821J-998841D01*
G01*
X125820236Y-143016823D02*
X151488488Y-143016823D01*
X142488488Y-83516823D02*
X126488488Y-83516823D01*
X142488488Y-83516823D02*
G75*
G02*
X143488477Y-84516823I12J-999977D01*
G01*
X143488488Y-91016823D02*
X143488488Y-84516823D01*
X144488488Y-92016823D02*
G75*
G02*
X143488477Y-91016823I12J1000023D01*
G01*
X144488488Y-92016823D02*
X200488488Y-92016823D01*
X151488488Y-143016823D02*
G75*
G02*
X152488477Y-144016823I12J-999977D01*
G01*
X152488488Y-144016823D02*
X152488488Y-159016823D01*
X153488488Y-160016823D02*
G75*
G02*
X152488477Y-159016823I12J1000023D01*
G01*
X153488488Y-160016823D02*
X187488488Y-160016823D01*
X188488488Y-144016823D02*
G75*
G02*
X189488488Y-143016888I999912J23D01*
G01*
X188488488Y-159016823D02*
G75*
G02*
X187488488Y-160016888I-1000088J23D01*
G01*
X188488488Y-159016823D02*
X188488488Y-144016823D01*
X200488488Y-92016823D02*
G75*
G02*
X201488477Y-93016823I12J-999977D01*
G01*
X200488488Y-143016823D02*
X189488488Y-143016823D01*
X201488488Y-93016823D02*
X201488488Y-142016823D01*
X201488488Y-142016823D02*
G75*
G02*
X200488488Y-143016888I-1000088J23D01*
G01*
M02*
