%TF.GenerationSoftware,KiCad,Pcbnew,10.0.5*%
%TF.CreationDate,2026-08-21T23:37:39-07:00*%
%TF.ProjectId,fih,6669682e-6b69-4636-9164-5f7063625858,v1.0.0*%
%TF.SameCoordinates,Original*%
%TF.FileFunction,Soldermask,Bot*%
%TF.FilePolarity,Negative*%
%FSLAX46Y46*%
G04 Gerber Fmt 4.6, Leading zero omitted, Abs format (unit mm)*
G04 Created by KiCad (PCBNEW 10.0.5) date 2026-08-21 23:37:39*
%MOMM*%
%LPD*%
G01*
G04 APERTURE LIST*
G04 Aperture macros list*
%AMFreePoly0*
4,1,14,0.035355,0.435355,0.635355,-0.164645,0.650000,-0.200000,0.650000,-0.400000,0.635355,-0.435355,0.600000,-0.450000,-0.600000,-0.450000,-0.635355,-0.435355,-0.650000,-0.400000,-0.650000,-0.200000,-0.635355,-0.164645,-0.035355,0.435355,0.000000,0.450000,0.035355,0.435355,0.035355,0.435355,$1*%
%AMFreePoly1*
4,1,16,0.635355,0.285355,0.650000,0.250000,0.650000,-1.000000,0.635355,-1.035355,0.600000,-1.050000,0.564645,-1.035355,0.000000,-0.470710,-0.564645,-1.035355,-0.600000,-1.050000,-0.635355,-1.035355,-0.650000,-1.000000,-0.650000,0.250000,-0.635355,0.285355,-0.600000,0.300000,0.600000,0.300000,0.635355,0.285355,0.635355,0.285355,$1*%
%AMFreePoly2*
4,1,16,-0.214645,0.660355,-0.210957,0.656235,0.289043,0.031235,0.299694,-0.005522,0.289043,-0.031235,-0.210957,-0.656235,-0.244478,-0.674694,-0.250000,-0.675000,-0.500000,-0.675000,-0.535355,-0.660355,-0.550000,-0.625000,-0.550000,0.625000,-0.535355,0.660355,-0.500000,0.675000,-0.250000,0.675000,-0.214645,0.660355,-0.214645,0.660355,$1*%
%AMFreePoly3*
4,1,16,0.535355,0.660355,0.550000,0.625000,0.550000,-0.625000,0.535355,-0.660355,0.500000,-0.675000,-0.650000,-0.675000,-0.685355,-0.660355,-0.700000,-0.625000,-0.689043,-0.593765,-0.214031,0.000000,-0.689043,0.593765,-0.699694,0.630522,-0.681235,0.664043,-0.650000,0.675000,0.500000,0.675000,0.535355,0.660355,0.535355,0.660355,$1*%
G04 Aperture macros list end*
%ADD10C,1.100000*%
%ADD11FreePoly0,0.000000*%
%ADD12FreePoly1,0.000000*%
%ADD13C,2.100000*%
%ADD14FreePoly2,180.000000*%
%ADD15C,1.800000*%
%ADD16FreePoly2,0.000000*%
%ADD17FreePoly3,0.000000*%
%ADD18C,0.900000*%
%ADD19FreePoly3,180.000000*%
%ADD20C,2.000000*%
%ADD21C,3.500000*%
%ADD22C,2.132000*%
G04 APERTURE END LIST*
D10*
%TO.C,XX1*%
X191488488Y-141016823D03*
X193488488Y-141016823D03*
D11*
X191488488Y-139016823D03*
X193488488Y-139016823D03*
D12*
X193488488Y-138000823D03*
X191488488Y-138000823D03*
%TD*%
D13*
%TO.C,RST1*%
X167238488Y-95016823D03*
X173738488Y-95016823D03*
%TD*%
D14*
%TO.C,MCU1*%
X195988488Y-95816823D03*
D15*
X198108488Y-95816823D03*
D14*
X195988488Y-98356823D03*
D15*
X198108488Y-98356823D03*
D14*
X195988488Y-100896823D03*
D15*
X198108488Y-100896823D03*
D14*
X195988488Y-103436823D03*
D15*
X198108488Y-103436823D03*
X198108488Y-105976823D03*
X198108488Y-108516823D03*
X198108488Y-111056823D03*
X198108488Y-113596823D03*
X198108488Y-116136823D03*
X198108488Y-118676823D03*
X198108488Y-121216823D03*
X198108488Y-123756823D03*
X182868488Y-123756823D03*
X182868488Y-121216823D03*
X182868488Y-118676823D03*
X182868488Y-116136823D03*
X182868488Y-113596823D03*
X182868488Y-111056823D03*
X182868488Y-108516823D03*
X182868488Y-105976823D03*
X182868488Y-103436823D03*
D16*
X184988488Y-103436823D03*
D15*
X182868488Y-100896823D03*
D16*
X184988488Y-100896823D03*
D15*
X182868488Y-98356823D03*
D16*
X184988488Y-98356823D03*
D15*
X182868488Y-95816823D03*
D16*
X184988488Y-95816823D03*
D17*
X185713488Y-95816823D03*
D18*
X193888488Y-95816823D03*
D17*
X185713488Y-98356823D03*
D18*
X193888488Y-98356823D03*
D17*
X185713488Y-100896823D03*
D18*
X193888488Y-100896823D03*
D17*
X185713488Y-103436823D03*
D18*
X193888488Y-103436823D03*
X187088488Y-103436823D03*
D19*
X195263488Y-103436823D03*
D18*
X187088488Y-100896823D03*
D19*
X195263488Y-100896823D03*
D18*
X187088488Y-98356823D03*
D19*
X195263488Y-98356823D03*
D18*
X187088488Y-95816823D03*
D19*
X195263488Y-95816823D03*
%TD*%
D10*
%TO.C,PWR1*%
X198488488Y-137516823D03*
X198488488Y-135016823D03*
X198488488Y-132516823D03*
%TD*%
D20*
%TO.C,S14*%
X155988488Y-151516823D03*
D21*
X161488488Y-151516823D03*
D20*
X166988488Y-151516823D03*
D22*
X156488488Y-147716823D03*
X166488488Y-147716823D03*
X161488488Y-145616823D03*
%TD*%
D20*
%TO.C,S15*%
X173988488Y-151516823D03*
D21*
X179488488Y-151516823D03*
D20*
X184988488Y-151516823D03*
D22*
X174488488Y-147716823D03*
X184488488Y-147716823D03*
X179488488Y-145616823D03*
%TD*%
D20*
%TO.C,S12*%
X164988488Y-126016823D03*
D21*
X170488488Y-126016823D03*
D20*
X175988488Y-126016823D03*
D22*
X165488488Y-122216823D03*
X175488488Y-122216823D03*
X170488488Y-120116823D03*
%TD*%
D20*
%TO.C,S2*%
X91631538Y-134213333D03*
D21*
X97047981Y-133258268D03*
D20*
X102464424Y-132303203D03*
D22*
X91464079Y-130384239D03*
X101312157Y-128647758D03*
X96023457Y-127447902D03*
%TD*%
D20*
%TO.C,S3*%
X111023810Y-135528292D03*
D21*
X116510412Y-135144631D03*
D20*
X121997014Y-134760970D03*
D22*
X111257517Y-131702670D03*
X121233158Y-131005105D03*
X116098849Y-129259003D03*
%TD*%
D20*
%TO.C,S13*%
X164988488Y-109016823D03*
D21*
X170488488Y-109016823D03*
D20*
X175988488Y-109016823D03*
D22*
X165488488Y-105216823D03*
X175488488Y-105216823D03*
X170488488Y-103116823D03*
%TD*%
D20*
%TO.C,S6*%
X128988488Y-126016823D03*
D21*
X134488488Y-126016823D03*
D20*
X139988488Y-126016823D03*
D22*
X129488488Y-122216823D03*
X139488488Y-122216823D03*
X134488488Y-120116823D03*
%TD*%
D20*
%TO.C,S11*%
X146988488Y-100516823D03*
D21*
X152488488Y-100516823D03*
D20*
X157988488Y-100516823D03*
D22*
X147488488Y-96716823D03*
X157488488Y-96716823D03*
X152488488Y-94616823D03*
%TD*%
D20*
%TO.C,S10*%
X146988488Y-117516823D03*
D21*
X152488488Y-117516823D03*
D20*
X157988488Y-117516823D03*
D22*
X147488488Y-113716823D03*
X157488488Y-113716823D03*
X152488488Y-111616823D03*
%TD*%
D20*
%TO.C,S5*%
X108652089Y-101611114D03*
D21*
X114138691Y-101227453D03*
D20*
X119625293Y-100843792D03*
D22*
X108885796Y-97785492D03*
X118861437Y-97087927D03*
X113727128Y-95341825D03*
%TD*%
D20*
%TO.C,S7*%
X128988488Y-109016823D03*
D21*
X134488488Y-109016823D03*
D20*
X139988488Y-109016823D03*
D22*
X129488488Y-105216823D03*
X139488488Y-105216823D03*
X134488488Y-103116823D03*
%TD*%
D20*
%TO.C,S4*%
X109837949Y-118569703D03*
D21*
X115324551Y-118186042D03*
D20*
X120811153Y-117802381D03*
D22*
X110071656Y-114744081D03*
X120047297Y-114046516D03*
X114912988Y-112300414D03*
%TD*%
D20*
%TO.C,S9*%
X146988488Y-134516823D03*
D21*
X152488488Y-134516823D03*
D20*
X157988488Y-134516823D03*
D22*
X147488488Y-130716823D03*
X157488488Y-130716823D03*
X152488488Y-128616823D03*
%TD*%
D20*
%TO.C,S1*%
X94583557Y-150955065D03*
D21*
X100000000Y-150000000D03*
D20*
X105416443Y-149044935D03*
D22*
X94416098Y-147125971D03*
X104264176Y-145389490D03*
X98975476Y-144189634D03*
%TD*%
D20*
%TO.C,S8*%
X128988488Y-92016823D03*
D21*
X134488488Y-92016823D03*
D20*
X139988488Y-92016823D03*
D22*
X129488488Y-88216823D03*
X139488488Y-88216823D03*
X134488488Y-86116823D03*
%TD*%
M02*
