M48
; DRILL file KiCad 10.0.5 date 2026-08-21T23:37:34
; FORMAT={-:-/ absolute / metric / decimal}
; #@! TF.CreationDate,2026-08-21T23:37:34-07:00
; #@! TF.GenerationSoftware,Kicad,Pcbnew,10.0.5
; #@! TF.FileFunction,Plated,1,2,PTH
FMAT,2
METRIC
; #@! TA.AperFunction,Plated,PTH,ViaDrill
T1C0.300
; #@! TA.AperFunction,Plated,PTH,ComponentDrill
T2C0.400
; #@! TA.AperFunction,Plated,PTH,ComponentDrill
T3C0.500
; #@! TA.AperFunction,Plated,PTH,ComponentDrill
T4C1.000
; #@! TA.AperFunction,Plated,PTH,ComponentDrill
T5C1.270
; #@! TA.AperFunction,Plated,PTH,ComponentDrill
T6C1.300
%
G90
G05
T1
X191.25Y-99.75
X192.0Y-97.25
X192.5Y-136.5
T2
X187.088Y-95.817
X187.088Y-98.357
X187.088Y-100.897
X187.088Y-103.437
X193.888Y-95.817
X193.888Y-98.357
X193.888Y-100.897
X193.888Y-103.437
T3
X191.488Y-141.017
X193.488Y-141.017
X198.488Y-132.517
X198.488Y-135.017
X198.488Y-137.517
T4
X182.868Y-95.817
X182.868Y-98.357
X182.868Y-100.897
X182.868Y-103.437
X182.868Y-105.977
X182.868Y-108.517
X182.868Y-111.057
X182.868Y-113.597
X182.868Y-116.137
X182.868Y-118.677
X182.868Y-121.217
X182.868Y-123.757
X198.108Y-95.817
X198.108Y-98.357
X198.108Y-100.897
X198.108Y-103.437
X198.108Y-105.977
X198.108Y-108.517
X198.108Y-111.057
X198.108Y-113.597
X198.108Y-116.137
X198.108Y-118.677
X198.108Y-121.217
X198.108Y-123.757
T5
X91.464Y-130.384
X94.416Y-147.126
X96.023Y-127.448
X98.975Y-144.19
X101.312Y-128.648
X104.264Y-145.389
X108.886Y-97.785
X110.072Y-114.744
X111.258Y-131.703
X113.727Y-95.342
X114.913Y-112.3
X116.099Y-129.259
X118.861Y-97.088
X120.047Y-114.047
X121.233Y-131.005
X129.488Y-88.217
X129.488Y-105.217
X129.488Y-122.217
X134.488Y-86.117
X134.488Y-103.117
X134.488Y-120.117
X139.488Y-88.217
X139.488Y-105.217
X139.488Y-122.217
X147.488Y-96.717
X147.488Y-113.717
X147.488Y-130.717
X152.488Y-94.617
X152.488Y-111.617
X152.488Y-128.617
X156.488Y-147.717
X157.488Y-96.717
X157.488Y-113.717
X157.488Y-130.717
X161.488Y-145.617
X165.488Y-105.217
X165.488Y-122.217
X166.488Y-147.717
X170.488Y-103.117
X170.488Y-120.117
X174.488Y-147.717
X175.488Y-105.217
X175.488Y-122.217
X179.488Y-145.617
X184.488Y-147.717
T6
X167.238Y-95.017
X173.738Y-95.017
M30
