M48
; DRILL file KiCad 10.0.5 date 2026-08-21T23:37:34
; FORMAT={-:-/ absolute / metric / decimal}
; #@! TF.CreationDate,2026-08-21T23:37:34-07:00
; #@! TF.GenerationSoftware,Kicad,Pcbnew,10.0.5
; #@! TF.FileFunction,NonPlated,1,2,NPTH
FMAT,2
METRIC
; #@! TA.AperFunction,NonPlated,NPTH,ComponentDrill
T1C1.900
; #@! TA.AperFunction,NonPlated,NPTH,ComponentDrill
T2C3.400
%
G90
G05
T1
X91.632Y-134.213
X94.584Y-150.955
X102.464Y-132.303
X105.416Y-149.045
X108.652Y-101.611
X109.838Y-118.57
X111.024Y-135.528
X119.625Y-100.844
X120.811Y-117.802
X121.997Y-134.761
X128.988Y-92.017
X128.988Y-109.017
X128.988Y-126.017
X139.988Y-92.017
X139.988Y-109.017
X139.988Y-126.017
X146.988Y-100.517
X146.988Y-117.517
X146.988Y-134.517
X155.988Y-151.517
X157.988Y-100.517
X157.988Y-117.517
X157.988Y-134.517
X164.988Y-109.017
X164.988Y-126.017
X166.988Y-151.517
X173.988Y-151.517
X175.988Y-109.017
X175.988Y-126.017
X184.988Y-151.517
T2
X97.048Y-133.258
X100.0Y-150.0
X114.139Y-101.227
X115.325Y-118.186
X116.51Y-135.145
X134.488Y-92.017
X134.488Y-109.017
X134.488Y-126.017
X152.488Y-100.517
X152.488Y-117.517
X152.488Y-134.517
X161.488Y-151.517
X170.488Y-109.017
X170.488Y-126.017
X179.488Y-151.517
M30
